# Blender 4.5.2 LTS
# www.blender.org
mtllib cube.mtl
o Cube
v -1.000000 -1.000000 1.000000
v -1.000000 1.000000 1.000000
v -1.000000 -1.000000 -1.000000
v -1.000000 1.000000 -1.000000
v 1.000000 -1.000000 1.000000
v 1.000000 1.000000 1.000000
v 1.000000 -1.000000 -1.000000
v 1.000000 1.000000 -1.000000
v 1.000000 0.561258 -0.561258
v 1.000000 -0.561258 -0.561258
v 1.000000 -0.561258 0.561258
v 1.000000 0.561258 0.561258
v 3.885643 0.561258 -0.561258
v 3.885643 -0.561258 -0.561258
v 3.885643 -0.561258 0.561258
v 3.885643 0.561258 0.561258
vn -1.0000 -0.0000 -0.0000
vn -0.0000 -0.0000 -1.0000
vn 1.0000 -0.0000 -0.0000
vn -0.0000 -0.0000 1.0000
vn -0.0000 -1.0000 -0.0000
vn -0.0000 1.0000 -0.0000
vt 0.375000 0.000000
vt 0.625000 0.000000
vt 0.625000 0.250000
vt 0.375000 0.250000
vt 0.625000 0.500000
vt 0.375000 0.500000
vt 0.625000 0.750000
vt 0.375000 0.750000
vt 0.625000 1.000000
vt 0.375000 1.000000
vt 0.125000 0.500000
vt 0.125000 0.750000
vt 0.875000 0.500000
vt 0.875000 0.750000
s 0
usemtl Material.002
f 1/1/1 2/2/1 4/3/1 3/4/1
f 6/7/3 5/8/3 11/8/3 12/7/3
f 5/8/4 6/7/4 2/9/4 1/10/4
f 3/11/5 7/6/5 5/8/5 1/12/5
f 12/7/4 11/8/4 15/8/4 16/7/4
f 5/8/3 7/6/3 10/6/3 11/8/3
f 11/8/5 10/6/5 14/6/5 15/8/5
usemtl Material.005
f 3/4/2 4/3/2 8/5/2 7/6/2
f 7/6/3 8/5/3 9/5/3 10/6/3
f 10/6/2 9/5/2 13/5/2 14/6/2
usemtl Material.006
f 14/6/3 13/5/3 16/7/3 15/8/3
usemtl Material.007
f 8/5/6 4/13/6 2/14/6 6/7/6
f 8/5/3 6/7/3 12/7/3 9/5/3
f 9/5/6 12/7/6 16/7/6 13/5/6
