<?xml version="1.0" encoding="UTF-8" standalone="no"?>
<!DOCTYPE svg PUBLIC "-//W3C//DTD SVG 1.1//EN"
 "http://www.w3.org/Graphics/SVG/1.1/DTD/svg11.dtd">
<!-- Generated by graphviz version 15.0.0 (20260523.1842)
 -->
<!-- Title: Andromeda::IFramebuffer Pages: 1 -->
<svg width="277pt" height="262pt"
 viewBox="0.00 0.00 277.00 262.00" xmlns="http://www.w3.org/2000/svg" xmlns:xlink="http://www.w3.org/1999/xlink">
<g id="graph0" class="graph" transform="scale(1 1) rotate(0) translate(4 258)">
<title>Andromeda::IFramebuffer</title>
<!-- Node1 -->
<g id="Node000001" class="node">
<title>Node1</title>
<g id="a_Node000001"><a xlink:title="Abstract render target wrapping one or more attachments; implemented per backend.">
<polygon fill="#999999" stroke="#666666" points="184.5,-20 58.25,-20 58.25,0 184.5,0 184.5,-20"/>
<text xml:space="preserve" text-anchor="middle" x="121.38" y="-6.5" font-family="Helvetica,sans-Serif" font-size="10.00">Andromeda::IFramebuffer</text>
</a>
</g>
</g>
<!-- Node2 -->
<g id="Node000002" class="node">
<title>Node2</title>
<g id="a_Node000002"><a xlink:title=" ">
<polygon fill="white" stroke="#666666" points="181.5,-106 61.25,-106 61.25,-74 181.5,-74 181.5,-106"/>
<text xml:space="preserve" text-anchor="start" x="69.25" y="-92.5" font-family="Helvetica,sans-Serif" font-size="10.00">std::vector&lt; Andromeda</text>
<text xml:space="preserve" text-anchor="middle" x="121.38" y="-80.5" font-family="Helvetica,sans-Serif" font-size="10.00">::Texture &gt;</text>
</a>
</g>
</g>
<!-- Node2&#45;&gt;Node1 -->
<g id="edge1_Node000001_Node000002" class="edge">
<title>Node2&#45;&gt;Node1</title>
<g id="a_edge1_Node000001_Node000002"><a xlink:title=" ">
<path fill="none" stroke="#9a32cd" stroke-dasharray="5,2" d="M121.38,-62.23C121.38,-47.77 121.38,-30.81 121.38,-20.49"/>
<polygon fill="#9a32cd" stroke="#9a32cd" points="117.88,-62.08 121.38,-72.08 124.88,-62.08 117.88,-62.08"/>
</a>
</g>
<text xml:space="preserve" text-anchor="start" x="124.38" y="-43.25" font-family="Helvetica,sans-Serif" font-size="10.00" fill="grey">m_ColorAttachments</text>
</g>
<!-- Node3 -->
<g id="Node000003" class="node">
<title>Node3</title>
<g id="a_Node000003"><a xlink:href="class_andromeda_1_1_texture.html" target="_top" xlink:title="Lightweight handle/description of a GPU texture (dimensions, format, sampler and API ID).">
<polygon fill="white" stroke="#666666" points="117.25,-180 13.5,-180 13.5,-160 117.25,-160 117.25,-180"/>
<text xml:space="preserve" text-anchor="middle" x="65.38" y="-166.5" font-family="Helvetica,sans-Serif" font-size="10.00">Andromeda::Texture</text>
</a>
</g>
</g>
<!-- Node3&#45;&gt;Node2 -->
<g id="edge2_Node000002_Node000003" class="edge">
<title>Node3&#45;&gt;Node2</title>
<g id="a_edge2_Node000002_Node000003"><a xlink:title=" ">
<path fill="none" stroke="#9a32cd" stroke-dasharray="5,2" d="M78.65,-150.52C88.3,-137.08 101.21,-119.09 110.31,-106.42"/>
<polygon fill="#9a32cd" stroke="#9a32cd" points="75.89,-148.35 72.9,-158.52 81.58,-152.43 75.89,-148.35"/>
</a>
</g>
<text xml:space="preserve" text-anchor="start" x="99.73" y="-129.25" font-family="Helvetica,sans-Serif" font-size="10.00" fill="grey">elements</text>
</g>
<!-- Node4 -->
<g id="Node000004" class="node">
<title>Node4</title>
<g id="a_Node000004"><a xlink:href="struct_andromeda_1_1_sampler_state.html" target="_top" xlink:title="Bundles all sampling parameters (filtering, wrapping, type) for a texture.">
<polygon fill="white" stroke="#666666" points="130.75,-254 0,-254 0,-234 130.75,-234 130.75,-254"/>
<text xml:space="preserve" text-anchor="middle" x="65.38" y="-240.5" font-family="Helvetica,sans-Serif" font-size="10.00">Andromeda::SamplerState</text>
</a>
</g>
</g>
<!-- Node4&#45;&gt;Node3 -->
<g id="edge3_Node000003_Node000004" class="edge">
<title>Node4&#45;&gt;Node3</title>
<g id="a_edge3_Node000003_Node000004"><a xlink:title=" ">
<path fill="none" stroke="#9a32cd" stroke-dasharray="5,2" d="M65.38,-222.18C65.38,-208.29 65.38,-190.71 65.38,-180.19"/>
<polygon fill="#9a32cd" stroke="#9a32cd" points="61.88,-222.07 65.38,-232.07 68.88,-222.07 61.88,-222.07"/>
</a>
</g>
<text xml:space="preserve" text-anchor="start" x="68.38" y="-203.25" font-family="Helvetica,sans-Serif" font-size="10.00" fill="grey">sampler</text>
</g>
<!-- Node5 -->
<g id="Node000005" class="node">
<title>Node5</title>
<g id="a_Node000005"><a xlink:title=" ">
<polygon fill="white" stroke="#666666" points="221.25,-180 135.5,-180 135.5,-160 221.25,-160 221.25,-180"/>
<text xml:space="preserve" text-anchor="middle" x="178.38" y="-166.5" font-family="Helvetica,sans-Serif" font-size="10.00">std::vector&lt; T &gt;</text>
</a>
</g>
</g>
<!-- Node5&#45;&gt;Node2 -->
<g id="edge4_Node000002_Node000005" class="edge">
<title>Node5&#45;&gt;Node2</title>
<g id="a_edge4_Node000002_Node000005"><a xlink:title=" ">
<path fill="none" stroke="orange" stroke-dasharray="5,2" d="M164.87,-150.52C155.05,-137.08 141.9,-119.09 132.64,-106.42"/>
<polygon fill="orange" stroke="orange" points="161.99,-152.52 170.72,-158.52 167.65,-148.39 161.99,-152.52"/>
</a>
</g>
<text xml:space="preserve" text-anchor="start" x="161.31" y="-129.25" font-family="Helvetica,sans-Serif" font-size="10.00" fill="grey">&lt; Andromeda::Texture &gt;</text>
</g>
<!-- Node6 -->
<g id="Node000006" class="node">
<title>Node6</title>
<g id="a_Node000006"><a xlink:title=" ">
<polygon fill="white" stroke="#666666" points="192.78,-254 163.97,-254 163.97,-234 192.78,-234 192.78,-254"/>
<text xml:space="preserve" text-anchor="middle" x="178.38" y="-240.5" font-family="Helvetica,sans-Serif" font-size="10.00">T</text>
</a>
</g>
</g>
<!-- Node6&#45;&gt;Node5 -->
<g id="edge5_Node000005_Node000006" class="edge">
<title>Node6&#45;&gt;Node5</title>
<g id="a_edge5_Node000005_Node000006"><a xlink:title=" ">
<path fill="none" stroke="#9a32cd" stroke-dasharray="5,2" d="M178.38,-222.18C178.38,-208.29 178.38,-190.71 178.38,-180.19"/>
<polygon fill="#9a32cd" stroke="#9a32cd" points="174.88,-222.07 178.38,-232.07 181.88,-222.07 174.88,-222.07"/>
</a>
</g>
<text xml:space="preserve" text-anchor="start" x="181.38" y="-203.25" font-family="Helvetica,sans-Serif" font-size="10.00" fill="grey">elements</text>
</g>
</g>
</svg>
