<?xml version="1.0" encoding="UTF-8" standalone="no"?>
<!DOCTYPE svg PUBLIC "-//W3C//DTD SVG 1.1//EN"
 "http://www.w3.org/Graphics/SVG/1.1/DTD/svg11.dtd">
<!-- Generated by graphviz version 15.0.0 (20260523.1842)
 -->
<!-- Title: Andromeda::Editor::Undo::UndoBuffer Pages: 1 -->
<svg width="230pt" height="262pt"
 viewBox="0.00 0.00 230.00 262.00" xmlns="http://www.w3.org/2000/svg" xmlns:xlink="http://www.w3.org/1999/xlink">
<g id="graph0" class="graph" transform="scale(1 1) rotate(0) translate(4 258)">
<title>Andromeda::Editor::Undo::UndoBuffer</title>
<!-- Node1 -->
<g id="Node000001" class="node">
<title>Node1</title>
<g id="a_Node000001"><a xlink:title="A fixed&#45;depth undo stack that serializes commands into a contiguous byte buffer.">
<polygon fill="#999999" stroke="#666666" points="155,-32 52,-32 52,0 155,0 155,-32"/>
<text xml:space="preserve" text-anchor="start" x="60" y="-18.5" font-family="Helvetica,sans-Serif" font-size="10.00">Andromeda::Editor::</text>
<text xml:space="preserve" text-anchor="middle" x="103.5" y="-6.5" font-family="Helvetica,sans-Serif" font-size="10.00">Undo::UndoBuffer</text>
</a>
</g>
</g>
<!-- Node2 -->
<g id="Node000002" class="node">
<title>Node2</title>
<g id="a_Node000002"><a xlink:title=" ">
<polygon fill="white" stroke="#666666" points="91,-106 0,-106 0,-86 91,-86 91,-106"/>
<text xml:space="preserve" text-anchor="middle" x="45.5" y="-92.5" font-family="Helvetica,sans-Serif" font-size="10.00">std::vector&lt; u8 &gt;</text>
</a>
</g>
</g>
<!-- Node2&#45;&gt;Node1 -->
<g id="edge1_Node000001_Node000002" class="edge">
<title>Node2&#45;&gt;Node1</title>
<g id="a_edge1_Node000001_Node000002"><a xlink:title=" ">
<path fill="none" stroke="#9a32cd" stroke-dasharray="5,2" d="M59.24,-76.52C69.24,-63.08 82.61,-45.09 92.04,-32.42"/>
<polygon fill="#9a32cd" stroke="#9a32cd" points="56.44,-74.42 53.28,-84.53 62.06,-78.6 56.44,-74.42"/>
</a>
</g>
<text xml:space="preserve" text-anchor="start" x="80.97" y="-55.25" font-family="Helvetica,sans-Serif" font-size="10.00" fill="grey">data</text>
</g>
<!-- Node3 -->
<g id="Node000003" class="node">
<title>Node3</title>
<g id="a_Node000003"><a xlink:title=" ">
<polygon fill="white" stroke="#666666" points="146.38,-180 60.62,-180 60.62,-160 146.38,-160 146.38,-180"/>
<text xml:space="preserve" text-anchor="middle" x="103.5" y="-166.5" font-family="Helvetica,sans-Serif" font-size="10.00">std::vector&lt; T &gt;</text>
</a>
</g>
</g>
<!-- Node3&#45;&gt;Node2 -->
<g id="edge2_Node000002_Node000003" class="edge">
<title>Node3&#45;&gt;Node2</title>
<g id="a_edge2_Node000002_Node000003"><a xlink:title=" ">
<path fill="none" stroke="orange" stroke-dasharray="5,2" d="M88.75,-150.68C77.29,-136.47 61.9,-117.36 52.9,-106.19"/>
<polygon fill="orange" stroke="orange" points="85.97,-152.82 94.97,-158.41 91.42,-148.43 85.97,-152.82"/>
</a>
</g>
<text xml:space="preserve" text-anchor="start" x="84.4" y="-129.25" font-family="Helvetica,sans-Serif" font-size="10.00" fill="grey">&lt; u8 &gt;</text>
</g>
<!-- Node5 -->
<g id="Node000005" class="node">
<title>Node5</title>
<g id="a_Node000005"><a xlink:title=" ">
<polygon fill="white" stroke="#666666" points="215.88,-106 109.12,-106 109.12,-86 215.88,-86 215.88,-106"/>
<text xml:space="preserve" text-anchor="middle" x="162.5" y="-92.5" font-family="Helvetica,sans-Serif" font-size="10.00">std::vector&lt; size_t &gt;</text>
</a>
</g>
</g>
<!-- Node3&#45;&gt;Node5 -->
<g id="edge5_Node000005_Node000003" class="edge">
<title>Node3&#45;&gt;Node5</title>
<g id="a_edge5_Node000005_Node000003"><a xlink:title=" ">
<path fill="none" stroke="orange" stroke-dasharray="5,2" d="M118.51,-150.68C130.16,-136.47 145.82,-117.36 154.97,-106.19"/>
<polygon fill="orange" stroke="orange" points="115.8,-148.46 112.17,-158.42 121.22,-152.9 115.8,-148.46"/>
</a>
</g>
<text xml:space="preserve" text-anchor="start" x="143.02" y="-129.25" font-family="Helvetica,sans-Serif" font-size="10.00" fill="grey">&lt; size_t &gt;</text>
</g>
<!-- Node4 -->
<g id="Node000004" class="node">
<title>Node4</title>
<g id="a_Node000004"><a xlink:title=" ">
<polygon fill="white" stroke="#666666" points="117.9,-254 89.1,-254 89.1,-234 117.9,-234 117.9,-254"/>
<text xml:space="preserve" text-anchor="middle" x="103.5" y="-240.5" font-family="Helvetica,sans-Serif" font-size="10.00">T</text>
</a>
</g>
</g>
<!-- Node4&#45;&gt;Node3 -->
<g id="edge3_Node000003_Node000004" class="edge">
<title>Node4&#45;&gt;Node3</title>
<g id="a_edge3_Node000003_Node000004"><a xlink:title=" ">
<path fill="none" stroke="#9a32cd" stroke-dasharray="5,2" d="M103.5,-222.18C103.5,-208.29 103.5,-190.71 103.5,-180.19"/>
<polygon fill="#9a32cd" stroke="#9a32cd" points="100,-222.07 103.5,-232.07 107,-222.07 100,-222.07"/>
</a>
</g>
<text xml:space="preserve" text-anchor="start" x="106.5" y="-203.25" font-family="Helvetica,sans-Serif" font-size="10.00" fill="grey">elements</text>
</g>
<!-- Node5&#45;&gt;Node1 -->
<g id="edge4_Node000001_Node000005" class="edge">
<title>Node5&#45;&gt;Node1</title>
<g id="a_edge4_Node000001_Node000005"><a xlink:title=" ">
<path fill="none" stroke="#9a32cd" stroke-dasharray="5,2" d="M148.82,-76.91C138.62,-63.43 124.84,-45.21 115.16,-32.42"/>
<polygon fill="#9a32cd" stroke="#9a32cd" points="145.76,-78.68 154.59,-84.54 151.35,-74.45 145.76,-78.68"/>
</a>
</g>
<text xml:space="preserve" text-anchor="start" x="144.73" y="-55.25" font-family="Helvetica,sans-Serif" font-size="10.00" fill="grey">commandOffsets</text>
</g>
</g>
</svg>
