<?xml version="1.0" encoding="UTF-8" standalone="no"?>
<!DOCTYPE svg PUBLIC "-//W3C//DTD SVG 1.1//EN"
 "http://www.w3.org/Graphics/SVG/1.1/DTD/svg11.dtd">
<!-- Generated by graphviz version 15.0.0 (20260523.1842)
 -->
<!-- Title: andromeda/modules Pages: 1 -->
<svg width="592pt" height="488pt"
 viewBox="0.00 0.00 592.00 488.00" xmlns="http://www.w3.org/2000/svg" xmlns:xlink="http://www.w3.org/1999/xlink">
<g id="graph0" class="graph" transform="scale(1 1) rotate(0) translate(4 484)">
<title>andromeda/modules</title>
<g id="clust1" class="cluster">
<title>clusterdir_011b922a5103a33c887c370ed908b95f</title>
<g id="a_clust1"><a xlink:href="dir_011b922a5103a33c887c370ed908b95f.html" target="_top" xlink:title="andromeda">
<polygon fill="#edf0f7" stroke="#404040" stroke-dasharray="5,2" points="8,-8 8,-472 576,-472 576,-8 8,-8"/>
<text xml:space="preserve" text-anchor="middle" x="292" y="-458.5" font-family="Helvetica,sans-Serif" font-size="10.00">andromeda</text>
</a>
</g>
</g>
<g id="clust2" class="cluster">
<title>clusterdir_a6d3f3cd5ce2d0140642e50638afddda</title>
<g id="a_clust2"><a xlink:href="dir_a6d3f3cd5ce2d0140642e50638afddda.html" target="_top">
<polygon fill="#edf0f7" stroke="#404040" stroke-width="2" points="16,-16 16,-444 568,-444 568,-16 16,-16"/>
</a>
</g>
</g>
<!-- dir_a6d3f3cd5ce2d0140642e50638afddda -->
<g id="node1" class="node">
<title>dir_a6d3f3cd5ce2d0140642e50638afddda</title>
<text xml:space="preserve" text-anchor="middle" x="284" y="-422.5" font-family="Helvetica,sans-Serif" font-size="10.00">modules</text>
</g>
<!-- dir_cb4a5b12b72a112763cb8fa56446af32 -->
<g id="node2" class="node">
<title>dir_cb4a5b12b72a112763cb8fa56446af32</title>
<g id="a_node2"><a xlink:href="dir_cb4a5b12b72a112763cb8fa56446af32.html" target="_top" xlink:title="core">
<polygon fill="#a2b4d6" stroke="#404040" points="223.38,-212 188.62,-212 188.62,-192 223.38,-192 223.38,-212"/>
<text xml:space="preserve" text-anchor="middle" x="206" y="-198.5" font-family="Helvetica,sans-Serif" font-size="10.00">core</text>
</a>
</g>
</g>
<!-- dir_a6d3f3cd5ce2d0140642e50638afddda&#45;&gt;dir_cb4a5b12b72a112763cb8fa56446af32 -->
<g id="edge8" class="edge">
<title>dir_a6d3f3cd5ce2d0140642e50638afddda&#45;&gt;dir_cb4a5b12b72a112763cb8fa56446af32</title>
<g id="a_edge8"><a xlink:href="dir_000011_000001.html" target="_top">
<path fill="none" stroke="#63b8ff" d="M257.77,-421.31C211.66,-413.21 117.4,-389.11 80,-324 51.66,-274.66 132.52,-232.66 177.75,-213.73"/>
<polygon fill="#63b8ff" stroke="#63b8ff" points="179.04,-216.99 186.99,-209.99 176.41,-210.5 179.04,-216.99"/>
</a>
</g>
<g id="a_edge8&#45;headlabel"><a xlink:href="dir_000011_000001.html" target="_top" xlink:title="29">
<text xml:space="preserve" text-anchor="middle" x="178.17" y="-216.9" font-family="Helvetica,sans-Serif" font-size="10.00" fill="#63b8ff">29</text>
</a>
</g>
</g>
<!-- dir_9bb0b61234714e0272a4587be2b9fb30 -->
<g id="node3" class="node">
<title>dir_9bb0b61234714e0272a4587be2b9fb30</title>
<g id="a_node3"><a xlink:href="dir_9bb0b61234714e0272a4587be2b9fb30.html" target="_top" xlink:title="definitions">
<polygon fill="#a2b4d6" stroke="#404040" points="312.12,-100 251.88,-100 251.88,-80 312.12,-80 312.12,-100"/>
<text xml:space="preserve" text-anchor="middle" x="282" y="-86.5" font-family="Helvetica,sans-Serif" font-size="10.00">definitions</text>
</a>
</g>
</g>
<!-- dir_a6d3f3cd5ce2d0140642e50638afddda&#45;&gt;dir_9bb0b61234714e0272a4587be2b9fb30 -->
<g id="edge5" class="edge">
<title>dir_a6d3f3cd5ce2d0140642e50638afddda&#45;&gt;dir_9bb0b61234714e0272a4587be2b9fb30</title>
<g id="a_edge5"><a xlink:href="dir_000011_000002.html" target="_top">
<path fill="none" stroke="#63b8ff" d="M257.63,-423.86C221.18,-421.11 154.73,-411.77 109,-380 84.09,-362.7 79.08,-352.94 70,-324 37.5,-220.45 182.79,-137.43 249.75,-105.33"/>
<polygon fill="#63b8ff" stroke="#63b8ff" points="251.22,-108.51 258.79,-101.09 248.25,-102.17 251.22,-108.51"/>
</a>
</g>
<g id="a_edge5&#45;headlabel"><a xlink:href="dir_000011_000002.html" target="_top" xlink:title="97">
<text xml:space="preserve" text-anchor="middle" x="250.54" y="-108.46" font-family="Helvetica,sans-Serif" font-size="10.00" fill="#63b8ff">97</text>
</a>
</g>
</g>
<!-- dir_514bdd78a94822940655c6f3fa27badc -->
<g id="node4" class="node">
<title>dir_514bdd78a94822940655c6f3fa27badc</title>
<g id="a_node4"><a xlink:href="dir_514bdd78a94822940655c6f3fa27badc.html" target="_top" xlink:title="editor">
<polygon fill="#a2b4d6" stroke="#404040" points="304,-380 264,-380 264,-360 304,-360 304,-380"/>
<text xml:space="preserve" text-anchor="middle" x="284" y="-366.5" font-family="Helvetica,sans-Serif" font-size="10.00">editor</text>
</a>
</g>
</g>
<!-- dir_a6d3f3cd5ce2d0140642e50638afddda&#45;&gt;dir_514bdd78a94822940655c6f3fa27badc -->
<g id="edge4" class="edge">
<title>dir_a6d3f3cd5ce2d0140642e50638afddda&#45;&gt;dir_514bdd78a94822940655c6f3fa27badc</title>
<g id="a_edge4"><a xlink:href="dir_000011_000004.html" target="_top">
<path fill="none" stroke="#63b8ff" d="M284,-416.08C284,-409.48 284,-400.21 284,-391.79"/>
<polygon fill="#63b8ff" stroke="#63b8ff" points="287.5,-391.99 284,-381.99 280.5,-391.99 287.5,-391.99"/>
</a>
</g>
<g id="a_edge4&#45;headlabel"><a xlink:href="dir_000011_000004.html" target="_top" xlink:title="1">
<text xml:space="preserve" text-anchor="middle" x="290.34" y="-390.57" font-family="Helvetica,sans-Serif" font-size="10.00" fill="#63b8ff">1</text>
</a>
</g>
</g>
<!-- dir_b7445e902ea5bef1dde11b73dc3f25aa -->
<g id="node7" class="node">
<title>dir_b7445e902ea5bef1dde11b73dc3f25aa</title>
<g id="a_node7"><a xlink:href="dir_b7445e902ea5bef1dde11b73dc3f25aa.html" target="_top" xlink:title="input">
<polygon fill="#a2b4d6" stroke="#404040" points="125.5,-324 88.5,-324 88.5,-304 125.5,-304 125.5,-324"/>
<text xml:space="preserve" text-anchor="middle" x="107" y="-310.5" font-family="Helvetica,sans-Serif" font-size="10.00">input</text>
</a>
</g>
</g>
<!-- dir_a6d3f3cd5ce2d0140642e50638afddda&#45;&gt;dir_b7445e902ea5bef1dde11b73dc3f25aa -->
<g id="edge7" class="edge">
<title>dir_a6d3f3cd5ce2d0140642e50638afddda&#45;&gt;dir_b7445e902ea5bef1dde11b73dc3f25aa</title>
<g id="a_edge7"><a xlink:href="dir_000011_000009.html" target="_top">
<path fill="none" stroke="#63b8ff" d="M269.81,-416.18C239.82,-397.54 169.64,-353.93 131.96,-330.51"/>
<polygon fill="#63b8ff" stroke="#63b8ff" points="133.88,-327.58 123.54,-325.28 130.19,-333.53 133.88,-327.58"/>
</a>
</g>
<g id="a_edge7&#45;headlabel"><a xlink:href="dir_000011_000009.html" target="_top" xlink:title="2">
<text xml:space="preserve" text-anchor="middle" x="137.15" y="-322.77" font-family="Helvetica,sans-Serif" font-size="10.00" fill="#63b8ff">2</text>
</a>
</g>
</g>
<!-- dir_4c3a4e371920afa2d03bb73cbf8574ce -->
<g id="node8" class="node">
<title>dir_4c3a4e371920afa2d03bb73cbf8574ce</title>
<g id="a_node8"><a xlink:href="dir_4c3a4e371920afa2d03bb73cbf8574ce.html" target="_top" xlink:title="network">
<polygon fill="#a2b4d6" stroke="#404040" points="520.25,-268 469.75,-268 469.75,-248 520.25,-248 520.25,-268"/>
<text xml:space="preserve" text-anchor="middle" x="495" y="-254.5" font-family="Helvetica,sans-Serif" font-size="10.00">network</text>
</a>
</g>
</g>
<!-- dir_a6d3f3cd5ce2d0140642e50638afddda&#45;&gt;dir_4c3a4e371920afa2d03bb73cbf8574ce -->
<g id="edge3" class="edge">
<title>dir_a6d3f3cd5ce2d0140642e50638afddda&#45;&gt;dir_4c3a4e371920afa2d03bb73cbf8574ce</title>
<g id="a_edge3"><a xlink:href="dir_000011_000012.html" target="_top">
<path fill="none" stroke="#63b8ff" d="M310.11,-425.54C347.38,-424.87 415.74,-418.07 456,-380 484.1,-353.43 492.01,-306.53 494.2,-279.59"/>
<polygon fill="#63b8ff" stroke="#63b8ff" points="497.67,-280.16 494.77,-269.96 490.68,-279.74 497.67,-280.16"/>
</a>
</g>
<g id="a_edge3&#45;headlabel"><a xlink:href="dir_000011_000012.html" target="_top" xlink:title="3">
<text xml:space="preserve" text-anchor="middle" x="500.38" y="-278.9" font-family="Helvetica,sans-Serif" font-size="10.00" fill="#63b8ff">3</text>
</a>
</g>
</g>
<!-- dir_de532c0efdf3070aa84271b1e25dc44f -->
<g id="node9" class="node">
<title>dir_de532c0efdf3070aa84271b1e25dc44f</title>
<g id="a_node9"><a xlink:href="dir_de532c0efdf3070aa84271b1e25dc44f.html" target="_top" xlink:title="renderer">
<polygon fill="#a2b4d6" stroke="#404040" points="431.62,-324 380.38,-324 380.38,-304 431.62,-304 431.62,-324"/>
<text xml:space="preserve" text-anchor="middle" x="406" y="-310.5" font-family="Helvetica,sans-Serif" font-size="10.00">renderer</text>
</a>
</g>
</g>
<!-- dir_a6d3f3cd5ce2d0140642e50638afddda&#45;&gt;dir_de532c0efdf3070aa84271b1e25dc44f -->
<g id="edge9" class="edge">
<title>dir_a6d3f3cd5ce2d0140642e50638afddda&#45;&gt;dir_de532c0efdf3070aa84271b1e25dc44f</title>
<g id="a_edge9"><a xlink:href="dir_000011_000016.html" target="_top">
<path fill="none" stroke="#63b8ff" d="M297.89,-416.07C310.86,-407.48 330.49,-393.78 346,-380 362.6,-365.24 379.59,-346.42 391.24,-332.83"/>
<polygon fill="#63b8ff" stroke="#63b8ff" points="393.62,-335.42 397.4,-325.52 388.27,-330.91 393.62,-335.42"/>
</a>
</g>
<g id="a_edge9&#45;headlabel"><a xlink:href="dir_000011_000016.html" target="_top" xlink:title="2">
<text xml:space="preserve" text-anchor="middle" x="394.45" y="-335.35" font-family="Helvetica,sans-Serif" font-size="10.00" fill="#63b8ff">2</text>
</a>
</g>
</g>
<!-- dir_aac77115b0e189d7522835d9d581158b -->
<g id="node11" class="node">
<title>dir_aac77115b0e189d7522835d9d581158b</title>
<g id="a_node11"><a xlink:href="dir_aac77115b0e189d7522835d9d581158b.html" target="_top" xlink:title="resource">
<polygon fill="#a2b4d6" stroke="#404040" points="378.75,-212 325.25,-212 325.25,-192 378.75,-192 378.75,-212"/>
<text xml:space="preserve" text-anchor="middle" x="352" y="-198.5" font-family="Helvetica,sans-Serif" font-size="10.00">resource</text>
</a>
</g>
</g>
<!-- dir_a6d3f3cd5ce2d0140642e50638afddda&#45;&gt;dir_aac77115b0e189d7522835d9d581158b -->
<g id="edge6" class="edge">
<title>dir_a6d3f3cd5ce2d0140642e50638afddda&#45;&gt;dir_aac77115b0e189d7522835d9d581158b</title>
<g id="a_edge6"><a xlink:href="dir_000011_000018.html" target="_top">
<path fill="none" stroke="#63b8ff" d="M310.17,-417.26C347.39,-404.66 414.06,-375.74 441,-324 462.39,-282.91 411.25,-240.59 377.93,-218.53"/>
<polygon fill="#63b8ff" stroke="#63b8ff" points="379.85,-215.6 369.54,-213.17 376.09,-221.5 379.85,-215.6"/>
</a>
</g>
<g id="a_edge6&#45;headlabel"><a xlink:href="dir_000011_000018.html" target="_top" xlink:title="11">
<text xml:space="preserve" text-anchor="middle" x="383.13" y="-210.83" font-family="Helvetica,sans-Serif" font-size="10.00" fill="#63b8ff">11</text>
</a>
</g>
</g>
<!-- dir_32cd31bf577210cfc51bf650cdbf6a69 -->
<g id="node12" class="node">
<title>dir_32cd31bf577210cfc51bf650cdbf6a69</title>
<g id="a_node12"><a xlink:href="dir_32cd31bf577210cfc51bf650cdbf6a69.html" target="_top" xlink:title="scene">
<polygon fill="#a2b4d6" stroke="#404040" points="352.12,-268 309.88,-268 309.88,-248 352.12,-248 352.12,-268"/>
<text xml:space="preserve" text-anchor="middle" x="331" y="-254.5" font-family="Helvetica,sans-Serif" font-size="10.00">scene</text>
</a>
</g>
</g>
<!-- dir_a6d3f3cd5ce2d0140642e50638afddda&#45;&gt;dir_32cd31bf577210cfc51bf650cdbf6a69 -->
<g id="edge1" class="edge">
<title>dir_a6d3f3cd5ce2d0140642e50638afddda&#45;&gt;dir_32cd31bf577210cfc51bf650cdbf6a69</title>
<g id="a_edge1"><a xlink:href="dir_000011_000019.html" target="_top">
<path fill="none" stroke="#63b8ff" d="M291.22,-416.31C297.99,-407.66 307.83,-393.74 313,-380 325.62,-346.47 329.43,-304.59 330.55,-279.93"/>
<polygon fill="#63b8ff" stroke="#63b8ff" points="334.05,-280.07 330.88,-269.95 327.05,-279.83 334.05,-280.07"/>
</a>
</g>
<g id="a_edge1&#45;headlabel"><a xlink:href="dir_000011_000019.html" target="_top" xlink:title="6">
<text xml:space="preserve" text-anchor="middle" x="336.82" y="-278.74" font-family="Helvetica,sans-Serif" font-size="10.00" fill="#63b8ff">6</text>
</a>
</g>
</g>
<!-- dir_4a8720ea2f33b1776e939f102be97548 -->
<g id="node13" class="node">
<title>dir_4a8720ea2f33b1776e939f102be97548</title>
<g id="a_node13"><a xlink:href="dir_4a8720ea2f33b1776e939f102be97548.html" target="_top" xlink:title="serialization">
<polygon fill="#a2b4d6" stroke="#404040" points="251.88,-268 184.12,-268 184.12,-248 251.88,-248 251.88,-268"/>
<text xml:space="preserve" text-anchor="middle" x="218" y="-254.5" font-family="Helvetica,sans-Serif" font-size="10.00">serialization</text>
</a>
</g>
</g>
<!-- dir_a6d3f3cd5ce2d0140642e50638afddda&#45;&gt;dir_4a8720ea2f33b1776e939f102be97548 -->
<g id="edge2" class="edge">
<title>dir_a6d3f3cd5ce2d0140642e50638afddda&#45;&gt;dir_4a8720ea2f33b1776e939f102be97548</title>
<g id="a_edge2"><a xlink:href="dir_000011_000020.html" target="_top">
<path fill="none" stroke="#63b8ff" d="M277.22,-416.12C270.78,-407.34 261.18,-393.32 255,-380 239.33,-346.23 228.19,-304.15 222.45,-279.56"/>
<polygon fill="#63b8ff" stroke="#63b8ff" points="225.89,-278.89 220.28,-269.9 219.06,-280.43 225.89,-278.89"/>
</a>
</g>
<g id="a_edge2&#45;headlabel"><a xlink:href="dir_000011_000020.html" target="_top" xlink:title="2">
<text xml:space="preserve" text-anchor="middle" x="229.12" y="-276.8" font-family="Helvetica,sans-Serif" font-size="10.00" fill="#63b8ff">2</text>
</a>
</g>
</g>
<!-- dir_cb4a5b12b72a112763cb8fa56446af32&#45;&gt;dir_9bb0b61234714e0272a4587be2b9fb30 -->
<g id="edge10" class="edge">
<title>dir_cb4a5b12b72a112763cb8fa56446af32&#45;&gt;dir_9bb0b61234714e0272a4587be2b9fb30</title>
<g id="a_edge10"><a xlink:href="dir_000001_000002.html" target="_top">
<path fill="none" stroke="#63b8ff" d="M209.3,-191.64C214.19,-178.5 224.16,-154.17 237,-136 244.19,-125.82 253.79,-115.87 262.27,-107.93"/>
<polygon fill="#63b8ff" stroke="#63b8ff" points="264.35,-110.77 269.43,-101.47 259.66,-105.57 264.35,-110.77"/>
</a>
</g>
<g id="a_edge10&#45;headlabel"><a xlink:href="dir_000001_000002.html" target="_top" xlink:title="7">
<text xml:space="preserve" text-anchor="middle" x="264.71" y="-110.77" font-family="Helvetica,sans-Serif" font-size="10.00" fill="#63b8ff">7</text>
</a>
</g>
</g>
<!-- dir_00101cfe1f5647fc46dfe3714c886e95 -->
<g id="node10" class="node">
<title>dir_00101cfe1f5647fc46dfe3714c886e95</title>
<g id="a_node10"><a xlink:href="dir_00101cfe1f5647fc46dfe3714c886e95.html" target="_top" xlink:title="renderer_rhi">
<polygon fill="#a2b4d6" stroke="#404040" points="315.5,-44 248.5,-44 248.5,-24 315.5,-24 315.5,-44"/>
<text xml:space="preserve" text-anchor="middle" x="282" y="-30.5" font-family="Helvetica,sans-Serif" font-size="10.00">renderer_rhi</text>
</a>
</g>
</g>
<!-- dir_9bb0b61234714e0272a4587be2b9fb30&#45;&gt;dir_00101cfe1f5647fc46dfe3714c886e95 -->
<g id="edge11" class="edge">
<title>dir_9bb0b61234714e0272a4587be2b9fb30&#45;&gt;dir_00101cfe1f5647fc46dfe3714c886e95</title>
<g id="a_edge11"><a xlink:href="dir_000002_000017.html" target="_top">
<path fill="none" stroke="#63b8ff" d="M276.73,-79.59C275.42,-73.01 274.98,-63.96 275.41,-55.73"/>
<polygon fill="#63b8ff" stroke="#63b8ff" points="278.89,-56.14 276.58,-45.8 271.94,-55.33 278.89,-56.14"/>
</a>
</g>
<g id="a_edge11&#45;headlabel"><a xlink:href="dir_000002_000017.html" target="_top" xlink:title="1">
<text xml:space="preserve" text-anchor="middle" x="281.47" y="-55.04" font-family="Helvetica,sans-Serif" font-size="10.00" fill="#63b8ff">1</text>
</a>
</g>
</g>
<!-- dir_514bdd78a94822940655c6f3fa27badc&#45;&gt;dir_cb4a5b12b72a112763cb8fa56446af32 -->
<g id="edge18" class="edge">
<title>dir_514bdd78a94822940655c6f3fa27badc&#45;&gt;dir_cb4a5b12b72a112763cb8fa56446af32</title>
<g id="a_edge18"><a xlink:href="dir_000004_000001.html" target="_top">
<path fill="none" stroke="#63b8ff" d="M265.42,-359.69C237.89,-344.72 187.33,-312.41 167,-268 159.18,-250.92 172.2,-232.68 185.26,-219.88"/>
<polygon fill="#63b8ff" stroke="#63b8ff" points="187.43,-222.64 192.5,-213.34 182.74,-217.45 187.43,-222.64"/>
</a>
</g>
<g id="a_edge18&#45;headlabel"><a xlink:href="dir_000004_000001.html" target="_top" xlink:title="7">
<text xml:space="preserve" text-anchor="middle" x="187.79" y="-222.64" font-family="Helvetica,sans-Serif" font-size="10.00" fill="#63b8ff">7</text>
</a>
</g>
</g>
<!-- dir_514bdd78a94822940655c6f3fa27badc&#45;&gt;dir_9bb0b61234714e0272a4587be2b9fb30 -->
<g id="edge15" class="edge">
<title>dir_514bdd78a94822940655c6f3fa27badc&#45;&gt;dir_9bb0b61234714e0272a4587be2b9fb30</title>
<g id="a_edge15"><a xlink:href="dir_000004_000002.html" target="_top">
<path fill="none" stroke="#63b8ff" d="M299.7,-359.55C312.19,-351.39 329.43,-338.64 341,-324 394.67,-256.06 440.26,-207.88 392,-136 376.81,-113.37 348.01,-102.12 323.69,-96.52"/>
<polygon fill="#63b8ff" stroke="#63b8ff" points="324.53,-93.12 314.03,-94.56 323.14,-99.98 324.53,-93.12"/>
</a>
</g>
<g id="a_edge15&#45;headlabel"><a xlink:href="dir_000004_000002.html" target="_top" xlink:title="5">
<text xml:space="preserve" text-anchor="middle" x="327.13" y="-87.25" font-family="Helvetica,sans-Serif" font-size="10.00" fill="#63b8ff">5</text>
</a>
</g>
</g>
<!-- dir_06bf32daa57ed935ece0e499a4dce661 -->
<g id="node6" class="node">
<title>dir_06bf32daa57ed935ece0e499a4dce661</title>
<g id="a_node6"><a xlink:href="dir_06bf32daa57ed935ece0e499a4dce661.html" target="_top" xlink:title="gui">
<polygon fill="#a2b4d6" stroke="#404040" points="282.4,-324 253.6,-324 253.6,-304 282.4,-304 282.4,-324"/>
<text xml:space="preserve" text-anchor="middle" x="268" y="-310.5" font-family="Helvetica,sans-Serif" font-size="10.00">gui</text>
</a>
</g>
</g>
<!-- dir_514bdd78a94822940655c6f3fa27badc&#45;&gt;dir_06bf32daa57ed935ece0e499a4dce661 -->
<g id="edge13" class="edge">
<title>dir_514bdd78a94822940655c6f3fa27badc&#45;&gt;dir_06bf32daa57ed935ece0e499a4dce661</title>
<g id="a_edge13"><a xlink:href="dir_000004_000008.html" target="_top">
<path fill="none" stroke="#63b8ff" d="M281.21,-359.59C279.22,-352.86 276.45,-343.53 273.97,-335.15"/>
<polygon fill="#63b8ff" stroke="#63b8ff" points="277.38,-334.34 271.19,-325.75 270.67,-336.33 277.38,-334.34"/>
</a>
</g>
<g id="a_edge13&#45;headlabel"><a xlink:href="dir_000004_000008.html" target="_top" xlink:title="3">
<text xml:space="preserve" text-anchor="middle" x="280.7" y="-332.03" font-family="Helvetica,sans-Serif" font-size="10.00" fill="#63b8ff">3</text>
</a>
</g>
</g>
<!-- dir_514bdd78a94822940655c6f3fa27badc&#45;&gt;dir_b7445e902ea5bef1dde11b73dc3f25aa -->
<g id="edge17" class="edge">
<title>dir_514bdd78a94822940655c6f3fa27badc&#45;&gt;dir_b7445e902ea5bef1dde11b73dc3f25aa</title>
<g id="a_edge17"><a xlink:href="dir_000004_000009.html" target="_top">
<path fill="none" stroke="#63b8ff" d="M263.7,-362.81C232.56,-353.31 172.85,-335.09 136.8,-324.09"/>
<polygon fill="#63b8ff" stroke="#63b8ff" points="138.03,-320.81 127.44,-321.24 135.99,-327.5 138.03,-320.81"/>
</a>
</g>
<g id="a_edge17&#45;headlabel"><a xlink:href="dir_000004_000009.html" target="_top" xlink:title="1">
<text xml:space="preserve" text-anchor="middle" x="140.85" y="-315.2" font-family="Helvetica,sans-Serif" font-size="10.00" fill="#63b8ff">1</text>
</a>
</g>
</g>
<!-- dir_514bdd78a94822940655c6f3fa27badc&#45;&gt;dir_de532c0efdf3070aa84271b1e25dc44f -->
<g id="edge19" class="edge">
<title>dir_514bdd78a94822940655c6f3fa27badc&#45;&gt;dir_de532c0efdf3070aa84271b1e25dc44f</title>
<g id="a_edge19"><a xlink:href="dir_000004_000016.html" target="_top">
<path fill="none" stroke="#63b8ff" d="M304.42,-359.96C323.45,-351.54 352.13,-338.84 374.17,-329.09"/>
<polygon fill="#63b8ff" stroke="#63b8ff" points="375.58,-332.29 383.31,-325.04 372.75,-325.89 375.58,-332.29"/>
</a>
</g>
<g id="a_edge19&#45;headlabel"><a xlink:href="dir_000004_000016.html" target="_top" xlink:title="1">
<text xml:space="preserve" text-anchor="middle" x="374.83" y="-332.23" font-family="Helvetica,sans-Serif" font-size="10.00" fill="#63b8ff">1</text>
</a>
</g>
</g>
<!-- dir_514bdd78a94822940655c6f3fa27badc&#45;&gt;dir_00101cfe1f5647fc46dfe3714c886e95 -->
<g id="edge12" class="edge">
<title>dir_514bdd78a94822940655c6f3fa27badc&#45;&gt;dir_00101cfe1f5647fc46dfe3714c886e95</title>
<g id="a_edge12"><a xlink:href="dir_000004_000017.html" target="_top">
<path fill="none" stroke="#63b8ff" d="M263.73,-367.25C217.44,-362.83 105.96,-349.71 80,-324 58.93,-303.14 65,-288.65 65,-259 65,-259 65,-259 65,-145 65,-68.66 173.18,-45.28 236.77,-38.14"/>
<polygon fill="#63b8ff" stroke="#63b8ff" points="236.99,-41.63 246.59,-37.14 236.28,-34.67 236.99,-41.63"/>
</a>
</g>
<g id="a_edge12&#45;headlabel"><a xlink:href="dir_000004_000017.html" target="_top" xlink:title="1">
<text xml:space="preserve" text-anchor="middle" x="235.21" y="-41.17" font-family="Helvetica,sans-Serif" font-size="10.00" fill="#63b8ff">1</text>
</a>
</g>
</g>
<!-- dir_514bdd78a94822940655c6f3fa27badc&#45;&gt;dir_aac77115b0e189d7522835d9d581158b -->
<g id="edge16" class="edge">
<title>dir_514bdd78a94822940655c6f3fa27badc&#45;&gt;dir_aac77115b0e189d7522835d9d581158b</title>
<g id="a_edge16"><a xlink:href="dir_000004_000018.html" target="_top">
<path fill="none" stroke="#63b8ff" d="M294.6,-359.72C312.43,-343.33 347.74,-307.27 361,-268 365.97,-253.29 363.1,-235.82 359.32,-222.7"/>
<polygon fill="#63b8ff" stroke="#63b8ff" points="362.75,-221.9 356.28,-213.51 356.1,-224.11 362.75,-221.9"/>
</a>
</g>
<g id="a_edge16&#45;headlabel"><a xlink:href="dir_000004_000018.html" target="_top" xlink:title="1">
<text xml:space="preserve" text-anchor="middle" x="366.1" y="-219.49" font-family="Helvetica,sans-Serif" font-size="10.00" fill="#63b8ff">1</text>
</a>
</g>
</g>
<!-- dir_514bdd78a94822940655c6f3fa27badc&#45;&gt;dir_32cd31bf577210cfc51bf650cdbf6a69 -->
<g id="edge14" class="edge">
<title>dir_514bdd78a94822940655c6f3fa27badc&#45;&gt;dir_32cd31bf577210cfc51bf650cdbf6a69</title>
<g id="a_edge14"><a xlink:href="dir_000004_000019.html" target="_top">
<path fill="none" stroke="#63b8ff" d="M288.01,-359.62C295.64,-341.76 312.4,-302.53 322.6,-278.67"/>
<polygon fill="#63b8ff" stroke="#63b8ff" points="325.7,-280.32 326.41,-269.75 319.26,-277.57 325.7,-280.32"/>
</a>
</g>
<g id="a_edge14&#45;headlabel"><a xlink:href="dir_000004_000019.html" target="_top" xlink:title="2">
<text xml:space="preserve" text-anchor="middle" x="327.49" y="-279.85" font-family="Helvetica,sans-Serif" font-size="10.00" fill="#63b8ff">2</text>
</a>
</g>
</g>
<!-- dir_fcd762ed92d7594e135cd07571d659be -->
<g id="node5" class="node">
<title>dir_fcd762ed92d7594e135cd07571d659be</title>
<g id="a_node5"><a xlink:href="dir_fcd762ed92d7594e135cd07571d659be.html" target="_top" xlink:title="filesystem">
<polygon fill="#a2b4d6" stroke="#404040" points="382.5,-156 321.5,-156 321.5,-136 382.5,-136 382.5,-156"/>
<text xml:space="preserve" text-anchor="middle" x="352" y="-142.5" font-family="Helvetica,sans-Serif" font-size="10.00">filesystem</text>
</a>
</g>
</g>
<!-- dir_fcd762ed92d7594e135cd07571d659be&#45;&gt;dir_9bb0b61234714e0272a4587be2b9fb30 -->
<g id="edge20" class="edge">
<title>dir_fcd762ed92d7594e135cd07571d659be&#45;&gt;dir_9bb0b61234714e0272a4587be2b9fb30</title>
<g id="a_edge20"><a xlink:href="dir_000006_000002.html" target="_top">
<path fill="none" stroke="#63b8ff" d="M339.81,-135.59C329.67,-127.77 315.01,-116.46 302.99,-107.19"/>
<polygon fill="#63b8ff" stroke="#63b8ff" points="305.31,-104.56 295.25,-101.22 301.03,-110.1 305.31,-104.56"/>
</a>
</g>
<g id="a_edge20&#45;headlabel"><a xlink:href="dir_000006_000002.html" target="_top" xlink:title="2">
<text xml:space="preserve" text-anchor="middle" x="308.69" y="-100.08" font-family="Helvetica,sans-Serif" font-size="10.00" fill="#63b8ff">2</text>
</a>
</g>
</g>
<!-- dir_06bf32daa57ed935ece0e499a4dce661&#45;&gt;dir_cb4a5b12b72a112763cb8fa56446af32 -->
<g id="edge23" class="edge">
<title>dir_06bf32daa57ed935ece0e499a4dce661&#45;&gt;dir_cb4a5b12b72a112763cb8fa56446af32</title>
<g id="a_edge23"><a xlink:href="dir_000008_000001.html" target="_top">
<path fill="none" stroke="#63b8ff" d="M253.17,-310.76C231.6,-306.61 192.25,-295.51 175,-268 165.39,-252.68 176.54,-233.93 188.05,-220.51"/>
<polygon fill="#63b8ff" stroke="#63b8ff" points="190.53,-222.98 194.79,-213.28 185.41,-218.2 190.53,-222.98"/>
</a>
</g>
<g id="a_edge23&#45;headlabel"><a xlink:href="dir_000008_000001.html" target="_top" xlink:title="12">
<text xml:space="preserve" text-anchor="middle" x="191.18" y="-222.94" font-family="Helvetica,sans-Serif" font-size="10.00" fill="#63b8ff">12</text>
</a>
</g>
</g>
<!-- dir_06bf32daa57ed935ece0e499a4dce661&#45;&gt;dir_9bb0b61234714e0272a4587be2b9fb30 -->
<g id="edge22" class="edge">
<title>dir_06bf32daa57ed935ece0e499a4dce661&#45;&gt;dir_9bb0b61234714e0272a4587be2b9fb30</title>
<g id="a_edge22"><a xlink:href="dir_000008_000002.html" target="_top">
<path fill="none" stroke="#63b8ff" d="M268.58,-303.74C270.67,-270.74 277.75,-158.31 280.7,-111.61"/>
<polygon fill="#63b8ff" stroke="#63b8ff" points="284.18,-112.01 281.32,-101.81 277.2,-111.57 284.18,-112.01"/>
</a>
</g>
<g id="a_edge22&#45;headlabel"><a xlink:href="dir_000008_000002.html" target="_top" xlink:title="14">
<text xml:space="preserve" text-anchor="middle" x="286.88" y="-110.76" font-family="Helvetica,sans-Serif" font-size="10.00" fill="#63b8ff">14</text>
</a>
</g>
</g>
<!-- dir_06bf32daa57ed935ece0e499a4dce661&#45;&gt;dir_00101cfe1f5647fc46dfe3714c886e95 -->
<g id="edge21" class="edge">
<title>dir_06bf32daa57ed935ece0e499a4dce661&#45;&gt;dir_00101cfe1f5647fc46dfe3714c886e95</title>
<g id="a_edge21"><a xlink:href="dir_000008_000017.html" target="_top">
<path fill="none" stroke="#63b8ff" d="M253.47,-311.41C230.47,-308.02 186.34,-297.79 167,-268 162.16,-260.54 165.99,-256.83 167,-248 176.33,-166.58 195.84,-147.02 243,-80 249.74,-70.42 258.16,-60.5 265.45,-52.42"/>
<polygon fill="#63b8ff" stroke="#63b8ff" points="267.8,-55.03 272.02,-45.31 262.66,-50.28 267.8,-55.03"/>
</a>
</g>
<g id="a_edge21&#45;headlabel"><a xlink:href="dir_000008_000017.html" target="_top" xlink:title="2">
<text xml:space="preserve" text-anchor="middle" x="268.48" y="-54.98" font-family="Helvetica,sans-Serif" font-size="10.00" fill="#63b8ff">2</text>
</a>
</g>
</g>
<!-- dir_06bf32daa57ed935ece0e499a4dce661&#45;&gt;dir_aac77115b0e189d7522835d9d581158b -->
<g id="edge25" class="edge">
<title>dir_06bf32daa57ed935ece0e499a4dce661&#45;&gt;dir_aac77115b0e189d7522835d9d581158b</title>
<g id="a_edge25"><a xlink:href="dir_000008_000018.html" target="_top">
<path fill="none" stroke="#63b8ff" d="M271.48,-303.54C276.64,-290.28 287.21,-265.81 301,-248 309.33,-237.24 320.49,-227.06 330.24,-219.11"/>
<polygon fill="#63b8ff" stroke="#63b8ff" points="332.12,-222.08 337.84,-213.15 327.81,-216.57 332.12,-222.08"/>
</a>
</g>
<g id="a_edge25&#45;headlabel"><a xlink:href="dir_000008_000018.html" target="_top" xlink:title="5">
<text xml:space="preserve" text-anchor="middle" x="332.24" y="-222.09" font-family="Helvetica,sans-Serif" font-size="10.00" fill="#63b8ff">5</text>
</a>
</g>
</g>
<!-- dir_06bf32daa57ed935ece0e499a4dce661&#45;&gt;dir_32cd31bf577210cfc51bf650cdbf6a69 -->
<g id="edge24" class="edge">
<title>dir_06bf32daa57ed935ece0e499a4dce661&#45;&gt;dir_32cd31bf577210cfc51bf650cdbf6a69</title>
<g id="a_edge24"><a xlink:href="dir_000008_000019.html" target="_top">
<path fill="none" stroke="#63b8ff" d="M278.97,-303.59C287.92,-295.93 300.77,-284.91 311.46,-275.75"/>
<polygon fill="#63b8ff" stroke="#63b8ff" points="313.69,-278.45 319,-269.28 309.13,-273.13 313.69,-278.45"/>
</a>
</g>
<g id="a_edge24&#45;headlabel"><a xlink:href="dir_000008_000019.html" target="_top" xlink:title="2">
<text xml:space="preserve" text-anchor="middle" x="313.96" y="-278.46" font-family="Helvetica,sans-Serif" font-size="10.00" fill="#63b8ff">2</text>
</a>
</g>
</g>
<!-- dir_06bf32daa57ed935ece0e499a4dce661&#45;&gt;dir_4a8720ea2f33b1776e939f102be97548 -->
<g id="edge26" class="edge">
<title>dir_06bf32daa57ed935ece0e499a4dce661&#45;&gt;dir_4a8720ea2f33b1776e939f102be97548</title>
<g id="a_edge26"><a xlink:href="dir_000008_000020.html" target="_top">
<path fill="none" stroke="#63b8ff" d="M259.29,-303.59C252.41,-296.16 242.61,-285.58 234.28,-276.58"/>
<polygon fill="#63b8ff" stroke="#63b8ff" points="237,-274.37 227.64,-269.41 231.86,-279.12 237,-274.37"/>
</a>
</g>
<g id="a_edge26&#45;headlabel"><a xlink:href="dir_000008_000020.html" target="_top" xlink:title="1">
<text xml:space="preserve" text-anchor="middle" x="240.5" y="-270.47" font-family="Helvetica,sans-Serif" font-size="10.00" fill="#63b8ff">1</text>
</a>
</g>
</g>
<!-- dir_b7445e902ea5bef1dde11b73dc3f25aa&#45;&gt;dir_cb4a5b12b72a112763cb8fa56446af32 -->
<g id="edge28" class="edge">
<title>dir_b7445e902ea5bef1dde11b73dc3f25aa&#45;&gt;dir_cb4a5b12b72a112763cb8fa56446af32</title>
<g id="a_edge28"><a xlink:href="dir_000009_000001.html" target="_top">
<path fill="none" stroke="#63b8ff" d="M110.02,-303.74C114.76,-290.29 124.96,-265.11 140,-248 150.76,-235.75 165.56,-225.26 178.42,-217.5"/>
<polygon fill="#63b8ff" stroke="#63b8ff" points="179.96,-220.65 186.89,-212.63 176.47,-214.58 179.96,-220.65"/>
</a>
</g>
<g id="a_edge28&#45;headlabel"><a xlink:href="dir_000009_000001.html" target="_top" xlink:title="1">
<text xml:space="preserve" text-anchor="middle" x="179.57" y="-220.65" font-family="Helvetica,sans-Serif" font-size="10.00" fill="#63b8ff">1</text>
</a>
</g>
</g>
<!-- dir_b7445e902ea5bef1dde11b73dc3f25aa&#45;&gt;dir_9bb0b61234714e0272a4587be2b9fb30 -->
<g id="edge27" class="edge">
<title>dir_b7445e902ea5bef1dde11b73dc3f25aa&#45;&gt;dir_9bb0b61234714e0272a4587be2b9fb30</title>
<g id="a_edge27"><a xlink:href="dir_000009_000002.html" target="_top">
<path fill="none" stroke="#63b8ff" d="M107.69,-303.67C108.97,-290.58 112.52,-266.31 122,-248 154.72,-184.82 222.3,-131.81 258.27,-106.67"/>
<polygon fill="#63b8ff" stroke="#63b8ff" points="260,-109.72 266.27,-101.18 256.04,-103.95 260,-109.72"/>
</a>
</g>
<g id="a_edge27&#45;headlabel"><a xlink:href="dir_000009_000002.html" target="_top" xlink:title="2">
<text xml:space="preserve" text-anchor="middle" x="259.89" y="-109.74" font-family="Helvetica,sans-Serif" font-size="10.00" fill="#63b8ff">2</text>
</a>
</g>
</g>
<!-- dir_4c3a4e371920afa2d03bb73cbf8574ce&#45;&gt;dir_cb4a5b12b72a112763cb8fa56446af32 -->
<g id="edge30" class="edge">
<title>dir_4c3a4e371920afa2d03bb73cbf8574ce&#45;&gt;dir_cb4a5b12b72a112763cb8fa56446af32</title>
<g id="a_edge30"><a xlink:href="dir_000012_000001.html" target="_top">
<path fill="none" stroke="#63b8ff" d="M469.35,-252.21C415.56,-242.16 291.24,-218.93 234.8,-208.38"/>
<polygon fill="#63b8ff" stroke="#63b8ff" points="235.49,-204.95 225.02,-206.55 234.21,-211.83 235.49,-204.95"/>
</a>
</g>
<g id="a_edge30&#45;headlabel"><a xlink:href="dir_000012_000001.html" target="_top" xlink:title="1">
<text xml:space="preserve" text-anchor="middle" x="238.06" y="-199.04" font-family="Helvetica,sans-Serif" font-size="10.00" fill="#63b8ff">1</text>
</a>
</g>
</g>
<!-- dir_4c3a4e371920afa2d03bb73cbf8574ce&#45;&gt;dir_9bb0b61234714e0272a4587be2b9fb30 -->
<g id="edge29" class="edge">
<title>dir_4c3a4e371920afa2d03bb73cbf8574ce&#45;&gt;dir_9bb0b61234714e0272a4587be2b9fb30</title>
<g id="a_edge29"><a xlink:href="dir_000012_000002.html" target="_top">
<path fill="none" stroke="#63b8ff" d="M492.35,-247.54C485.51,-224.82 465.04,-166.75 427,-136 397.33,-112.02 354.87,-100.77 323.56,-95.52"/>
<polygon fill="#63b8ff" stroke="#63b8ff" points="324.48,-92.12 314.06,-94.08 323.42,-99.04 324.48,-92.12"/>
</a>
</g>
<g id="a_edge29&#45;headlabel"><a xlink:href="dir_000012_000002.html" target="_top" xlink:title="10">
<text xml:space="preserve" text-anchor="middle" x="326.96" y="-86.13" font-family="Helvetica,sans-Serif" font-size="10.00" fill="#63b8ff">10</text>
</a>
</g>
</g>
<!-- dir_4c3a4e371920afa2d03bb73cbf8574ce&#45;&gt;dir_fcd762ed92d7594e135cd07571d659be -->
<g id="edge31" class="edge">
<title>dir_4c3a4e371920afa2d03bb73cbf8574ce&#45;&gt;dir_fcd762ed92d7594e135cd07571d659be</title>
<g id="a_edge31"><a xlink:href="dir_000012_000006.html" target="_top">
<path fill="none" stroke="#63b8ff" d="M482.81,-247.62C458.43,-228.87 403.42,-186.55 373.08,-163.21"/>
<polygon fill="#63b8ff" stroke="#63b8ff" points="375.42,-160.6 365.36,-157.28 371.15,-166.15 375.42,-160.6"/>
</a>
</g>
<g id="a_edge31&#45;headlabel"><a xlink:href="dir_000012_000006.html" target="_top" xlink:title="1">
<text xml:space="preserve" text-anchor="middle" x="378.8" y="-156.12" font-family="Helvetica,sans-Serif" font-size="10.00" fill="#63b8ff">1</text>
</a>
</g>
</g>
<!-- dir_de532c0efdf3070aa84271b1e25dc44f&#45;&gt;dir_cb4a5b12b72a112763cb8fa56446af32 -->
<g id="edge36" class="edge">
<title>dir_de532c0efdf3070aa84271b1e25dc44f&#45;&gt;dir_cb4a5b12b72a112763cb8fa56446af32</title>
<g id="a_edge36"><a xlink:href="dir_000016_000001.html" target="_top">
<path fill="none" stroke="#63b8ff" d="M401.98,-303.5C395.47,-289.29 381.27,-262.59 361,-248 322.72,-220.44 267.77,-209.67 234.62,-205.52"/>
<polygon fill="#63b8ff" stroke="#63b8ff" points="235.29,-202.08 224.97,-204.44 234.51,-209.03 235.29,-202.08"/>
</a>
</g>
<g id="a_edge36&#45;headlabel"><a xlink:href="dir_000016_000001.html" target="_top" xlink:title="3">
<text xml:space="preserve" text-anchor="middle" x="237.68" y="-195.99" font-family="Helvetica,sans-Serif" font-size="10.00" fill="#63b8ff">3</text>
</a>
</g>
</g>
<!-- dir_de532c0efdf3070aa84271b1e25dc44f&#45;&gt;dir_9bb0b61234714e0272a4587be2b9fb30 -->
<g id="edge34" class="edge">
<title>dir_de532c0efdf3070aa84271b1e25dc44f&#45;&gt;dir_9bb0b61234714e0272a4587be2b9fb30</title>
<g id="a_edge34"><a xlink:href="dir_000016_000002.html" target="_top">
<path fill="none" stroke="#63b8ff" d="M431.85,-310.6C472.1,-305.53 543.68,-290.46 529,-248 508.31,-188.17 493.59,-171.24 441,-136 405.61,-112.29 357.78,-100.94 323.85,-95.6"/>
<polygon fill="#63b8ff" stroke="#63b8ff" points="324.36,-92.14 313.97,-94.16 323.36,-99.06 324.36,-92.14"/>
</a>
</g>
<g id="a_edge34&#45;headlabel"><a xlink:href="dir_000016_000002.html" target="_top" xlink:title="8">
<text xml:space="preserve" text-anchor="middle" x="326.83" y="-86.12" font-family="Helvetica,sans-Serif" font-size="10.00" fill="#63b8ff">8</text>
</a>
</g>
</g>
<!-- dir_de532c0efdf3070aa84271b1e25dc44f&#45;&gt;dir_00101cfe1f5647fc46dfe3714c886e95 -->
<g id="edge32" class="edge">
<title>dir_de532c0efdf3070aa84271b1e25dc44f&#45;&gt;dir_00101cfe1f5647fc46dfe3714c886e95</title>
<g id="a_edge32"><a xlink:href="dir_000016_000017.html" target="_top">
<path fill="none" stroke="#63b8ff" d="M431.95,-310.49C460.73,-306.38 506.82,-295.67 535,-268 556.97,-246.42 559,-233.8 559,-203 559,-203 559,-203 559,-145 559,-95.68 405.41,-58.82 326.97,-43.21"/>
<polygon fill="#63b8ff" stroke="#63b8ff" points="327.94,-39.83 317.45,-41.35 326.6,-46.7 327.94,-39.83"/>
</a>
</g>
<g id="a_edge32&#45;headlabel"><a xlink:href="dir_000016_000017.html" target="_top" xlink:title="11">
<text xml:space="preserve" text-anchor="middle" x="330.52" y="-33.94" font-family="Helvetica,sans-Serif" font-size="10.00" fill="#63b8ff">11</text>
</a>
</g>
</g>
<!-- dir_de532c0efdf3070aa84271b1e25dc44f&#45;&gt;dir_aac77115b0e189d7522835d9d581158b -->
<g id="edge35" class="edge">
<title>dir_de532c0efdf3070aa84271b1e25dc44f&#45;&gt;dir_aac77115b0e189d7522835d9d581158b</title>
<g id="a_edge35"><a xlink:href="dir_000016_000018.html" target="_top">
<path fill="none" stroke="#63b8ff" d="M406.31,-303.64C406.37,-290.5 405.08,-266.18 396,-248 390.62,-237.23 381.72,-227.4 373.33,-219.69"/>
<polygon fill="#63b8ff" stroke="#63b8ff" points="375.63,-217.05 365.76,-213.2 371.08,-222.37 375.63,-217.05"/>
</a>
</g>
<g id="a_edge35&#45;headlabel"><a xlink:href="dir_000016_000018.html" target="_top" xlink:title="2">
<text xml:space="preserve" text-anchor="middle" x="379.06" y="-212.75" font-family="Helvetica,sans-Serif" font-size="10.00" fill="#63b8ff">2</text>
</a>
</g>
</g>
<!-- dir_de532c0efdf3070aa84271b1e25dc44f&#45;&gt;dir_32cd31bf577210cfc51bf650cdbf6a69 -->
<g id="edge33" class="edge">
<title>dir_de532c0efdf3070aa84271b1e25dc44f&#45;&gt;dir_32cd31bf577210cfc51bf650cdbf6a69</title>
<g id="a_edge33"><a xlink:href="dir_000016_000019.html" target="_top">
<path fill="none" stroke="#63b8ff" d="M392.94,-303.59C382.03,-295.74 366.25,-284.38 353.34,-275.09"/>
<polygon fill="#63b8ff" stroke="#63b8ff" points="355.55,-272.37 345.39,-269.36 351.46,-278.05 355.55,-272.37"/>
</a>
</g>
<g id="a_edge33&#45;headlabel"><a xlink:href="dir_000016_000019.html" target="_top" xlink:title="1">
<text xml:space="preserve" text-anchor="middle" x="358.9" y="-267.78" font-family="Helvetica,sans-Serif" font-size="10.00" fill="#63b8ff">1</text>
</a>
</g>
</g>
<!-- dir_00101cfe1f5647fc46dfe3714c886e95&#45;&gt;dir_9bb0b61234714e0272a4587be2b9fb30 -->
<g id="edge37" class="edge">
<title>dir_00101cfe1f5647fc46dfe3714c886e95&#45;&gt;dir_9bb0b61234714e0272a4587be2b9fb30</title>
<g id="a_edge37"><a xlink:href="dir_000017_000002.html" target="_top">
<path fill="none" stroke="#63b8ff" d="M287.25,-44.3C288.59,-50.93 289.03,-60.11 288.58,-68.43"/>
<polygon fill="#63b8ff" stroke="#63b8ff" points="285.13,-67.75 287.44,-78.09 292.08,-68.57 285.13,-67.75"/>
</a>
</g>
<g id="a_edge37&#45;headlabel"><a xlink:href="dir_000017_000002.html" target="_top" xlink:title="22">
<text xml:space="preserve" text-anchor="middle" x="282.55" y="-61.85" font-family="Helvetica,sans-Serif" font-size="10.00" fill="#63b8ff">22</text>
</a>
</g>
</g>
<!-- dir_aac77115b0e189d7522835d9d581158b&#45;&gt;dir_9bb0b61234714e0272a4587be2b9fb30 -->
<g id="edge39" class="edge">
<title>dir_aac77115b0e189d7522835d9d581158b&#45;&gt;dir_9bb0b61234714e0272a4587be2b9fb30</title>
<g id="a_edge39"><a xlink:href="dir_000018_000002.html" target="_top">
<path fill="none" stroke="#63b8ff" d="M342.51,-191.61C334.06,-182.9 321.72,-169.32 313,-156 303.57,-141.6 295.32,-123.89 289.7,-110.59"/>
<polygon fill="#63b8ff" stroke="#63b8ff" points="293.07,-109.58 286.06,-101.64 286.59,-112.22 293.07,-109.58"/>
</a>
</g>
<g id="a_edge39&#45;headlabel"><a xlink:href="dir_000018_000002.html" target="_top" xlink:title="10">
<text xml:space="preserve" text-anchor="middle" x="296.49" y="-106.94" font-family="Helvetica,sans-Serif" font-size="10.00" fill="#63b8ff">10</text>
</a>
</g>
</g>
<!-- dir_aac77115b0e189d7522835d9d581158b&#45;&gt;dir_fcd762ed92d7594e135cd07571d659be -->
<g id="edge40" class="edge">
<title>dir_aac77115b0e189d7522835d9d581158b&#45;&gt;dir_fcd762ed92d7594e135cd07571d659be</title>
<g id="a_edge40"><a xlink:href="dir_000018_000006.html" target="_top">
<path fill="none" stroke="#63b8ff" d="M352,-191.59C352,-185.01 352,-175.96 352,-167.73"/>
<polygon fill="#63b8ff" stroke="#63b8ff" points="355.5,-167.81 352,-157.81 348.5,-167.81 355.5,-167.81"/>
</a>
</g>
<g id="a_edge40&#45;headlabel"><a xlink:href="dir_000018_000006.html" target="_top" xlink:title="1">
<text xml:space="preserve" text-anchor="middle" x="358.34" y="-166.39" font-family="Helvetica,sans-Serif" font-size="10.00" fill="#63b8ff">1</text>
</a>
</g>
</g>
<!-- dir_aac77115b0e189d7522835d9d581158b&#45;&gt;dir_00101cfe1f5647fc46dfe3714c886e95 -->
<g id="edge38" class="edge">
<title>dir_aac77115b0e189d7522835d9d581158b&#45;&gt;dir_00101cfe1f5647fc46dfe3714c886e95</title>
<g id="a_edge38"><a xlink:href="dir_000018_000017.html" target="_top">
<path fill="none" stroke="#63b8ff" d="M364.8,-191.55C379.71,-179.29 401.22,-156.99 392,-136 375.08,-97.48 335.41,-67.22 308.63,-50.21"/>
<polygon fill="#63b8ff" stroke="#63b8ff" points="310.72,-47.39 300.37,-45.15 307.07,-53.36 310.72,-47.39"/>
</a>
</g>
<g id="a_edge38&#45;headlabel"><a xlink:href="dir_000018_000017.html" target="_top" xlink:title="6">
<text xml:space="preserve" text-anchor="middle" x="313.98" y="-42.56" font-family="Helvetica,sans-Serif" font-size="10.00" fill="#63b8ff">6</text>
</a>
</g>
</g>
<!-- dir_32cd31bf577210cfc51bf650cdbf6a69&#45;&gt;dir_cb4a5b12b72a112763cb8fa56446af32 -->
<g id="edge43" class="edge">
<title>dir_32cd31bf577210cfc51bf650cdbf6a69&#45;&gt;dir_cb4a5b12b72a112763cb8fa56446af32</title>
<g id="a_edge43"><a xlink:href="dir_000019_000001.html" target="_top">
<path fill="none" stroke="#63b8ff" d="M309.51,-247.72C288.64,-238.7 256.83,-224.96 233.99,-215.09"/>
<polygon fill="#63b8ff" stroke="#63b8ff" points="235.54,-211.95 224.97,-211.19 232.76,-218.37 235.54,-211.95"/>
</a>
</g>
<g id="a_edge43&#45;headlabel"><a xlink:href="dir_000019_000001.html" target="_top" xlink:title="2">
<text xml:space="preserve" text-anchor="middle" x="238.57" y="-206.67" font-family="Helvetica,sans-Serif" font-size="10.00" fill="#63b8ff">2</text>
</a>
</g>
</g>
<!-- dir_32cd31bf577210cfc51bf650cdbf6a69&#45;&gt;dir_9bb0b61234714e0272a4587be2b9fb30 -->
<g id="edge41" class="edge">
<title>dir_32cd31bf577210cfc51bf650cdbf6a69&#45;&gt;dir_9bb0b61234714e0272a4587be2b9fb30</title>
<g id="a_edge41"><a xlink:href="dir_000019_000002.html" target="_top">
<path fill="none" stroke="#63b8ff" d="M327.87,-247.7C324.81,-238.61 320.05,-224.37 316,-212 307.87,-187.15 305.13,-181.15 298,-156 293.77,-141.09 289.61,-124.07 286.59,-111.19"/>
<polygon fill="#63b8ff" stroke="#63b8ff" points="290.08,-110.74 284.42,-101.79 283.26,-112.32 290.08,-110.74"/>
</a>
</g>
<g id="a_edge41&#45;headlabel"><a xlink:href="dir_000019_000002.html" target="_top" xlink:title="4">
<text xml:space="preserve" text-anchor="middle" x="293.31" y="-108.63" font-family="Helvetica,sans-Serif" font-size="10.00" fill="#63b8ff">4</text>
</a>
</g>
</g>
<!-- dir_32cd31bf577210cfc51bf650cdbf6a69&#45;&gt;dir_aac77115b0e189d7522835d9d581158b -->
<g id="edge42" class="edge">
<title>dir_32cd31bf577210cfc51bf650cdbf6a69&#45;&gt;dir_aac77115b0e189d7522835d9d581158b</title>
<g id="a_edge42"><a xlink:href="dir_000019_000018.html" target="_top">
<path fill="none" stroke="#63b8ff" d="M334.66,-247.59C337.31,-240.78 340.99,-231.32 344.28,-222.86"/>
<polygon fill="#63b8ff" stroke="#63b8ff" points="347.47,-224.3 347.84,-213.71 340.95,-221.76 347.47,-224.3"/>
</a>
</g>
<g id="a_edge42&#45;headlabel"><a xlink:href="dir_000019_000018.html" target="_top" xlink:title="1">
<text xml:space="preserve" text-anchor="middle" x="349.36" y="-223.77" font-family="Helvetica,sans-Serif" font-size="10.00" fill="#63b8ff">1</text>
</a>
</g>
</g>
<!-- dir_4a8720ea2f33b1776e939f102be97548&#45;&gt;dir_cb4a5b12b72a112763cb8fa56446af32 -->
<g id="edge46" class="edge">
<title>dir_4a8720ea2f33b1776e939f102be97548&#45;&gt;dir_cb4a5b12b72a112763cb8fa56446af32</title>
<g id="a_edge46"><a xlink:href="dir_000020_000001.html" target="_top">
<path fill="none" stroke="#63b8ff" d="M215.91,-247.59C214.43,-240.93 212.39,-231.75 210.54,-223.44"/>
<polygon fill="#63b8ff" stroke="#63b8ff" points="213.98,-222.78 208.39,-213.78 207.15,-224.3 213.98,-222.78"/>
</a>
</g>
<g id="a_edge46&#45;headlabel"><a xlink:href="dir_000020_000001.html" target="_top" xlink:title="1">
<text xml:space="preserve" text-anchor="middle" x="217.2" y="-220.69" font-family="Helvetica,sans-Serif" font-size="10.00" fill="#63b8ff">1</text>
</a>
</g>
</g>
<!-- dir_4a8720ea2f33b1776e939f102be97548&#45;&gt;dir_9bb0b61234714e0272a4587be2b9fb30 -->
<g id="edge44" class="edge">
<title>dir_4a8720ea2f33b1776e939f102be97548&#45;&gt;dir_9bb0b61234714e0272a4587be2b9fb30</title>
<g id="a_edge44"><a xlink:href="dir_000020_000002.html" target="_top">
<path fill="none" stroke="#63b8ff" d="M220.88,-247.71C229.1,-221.24 252.39,-146.63 257,-136 260.82,-127.21 265.82,-117.88 270.35,-110.02"/>
<polygon fill="#63b8ff" stroke="#63b8ff" points="273.21,-112.07 275.3,-101.68 267.19,-108.49 273.21,-112.07"/>
</a>
</g>
<g id="a_edge44&#45;headlabel"><a xlink:href="dir_000020_000002.html" target="_top" xlink:title="3">
<text xml:space="preserve" text-anchor="middle" x="274.58" y="-111.81" font-family="Helvetica,sans-Serif" font-size="10.00" fill="#63b8ff">3</text>
</a>
</g>
</g>
<!-- dir_4a8720ea2f33b1776e939f102be97548&#45;&gt;dir_aac77115b0e189d7522835d9d581158b -->
<g id="edge45" class="edge">
<title>dir_4a8720ea2f33b1776e939f102be97548&#45;&gt;dir_aac77115b0e189d7522835d9d581158b</title>
<g id="a_edge45"><a xlink:href="dir_000020_000018.html" target="_top">
<path fill="none" stroke="#63b8ff" d="M241.34,-247.59C262.54,-239.05 294.07,-226.35 318.05,-216.68"/>
<polygon fill="#63b8ff" stroke="#63b8ff" points="319.11,-220.03 327.07,-213.05 316.49,-213.54 319.11,-220.03"/>
</a>
</g>
<g id="a_edge45&#45;headlabel"><a xlink:href="dir_000020_000018.html" target="_top" xlink:title="1">
<text xml:space="preserve" text-anchor="middle" x="318.24" y="-219.94" font-family="Helvetica,sans-Serif" font-size="10.00" fill="#63b8ff">1</text>
</a>
</g>
</g>
</g>
</svg>
