<?xml version="1.0" encoding="UTF-8" standalone="no"?>
<!DOCTYPE svg PUBLIC "-//W3C//DTD SVG 1.1//EN"
 "http://www.w3.org/Graphics/SVG/1.1/DTD/svg11.dtd">
<!-- Generated by graphviz version 15.0.0 (20260523.1842)
 -->
<!-- Title: Graphical Class Hierarchy Pages: 1 -->
<svg width="332pt" height="280pt"
 viewBox="0.00 0.00 332.00 280.00" xmlns="http://www.w3.org/2000/svg" xmlns:xlink="http://www.w3.org/1999/xlink">
<g id="graph0" class="graph" transform="scale(1 1) rotate(0) translate(4 276)">
<title>Graphical Class Hierarchy</title>
<!-- Node0 -->
<g id="Node000000" class="node">
<title>Node0</title>
<g id="a_Node000000"><a xlink:href="class_andromeda_1_1_i_model_provider.html" target="_top" xlink:title="Interface for components that expose a fixed catalogue of built&#45;in models to the editor.">
<polygon fill="white" stroke="#666666" points="136.75,-272 0,-272 0,-252 136.75,-252 136.75,-272"/>
<text xml:space="preserve" text-anchor="middle" x="68.38" y="-258.5" font-family="Helvetica,sans-Serif" font-size="10.00">Andromeda::IModelProvider</text>
</a>
</g>
</g>
<!-- Node1 -->
<g id="Node000001" class="node">
<title>Node1</title>
<g id="a_Node000001"><a xlink:href="class_andromeda_1_1_resource_manager.html" target="_top" xlink:title="asset management subsystem for the Andromeda Engine.">
<polygon fill="white" stroke="#666666" points="323.75,-272 172.75,-272 172.75,-252 323.75,-252 323.75,-272"/>
<text xml:space="preserve" text-anchor="middle" x="248.25" y="-258.5" font-family="Helvetica,sans-Serif" font-size="10.00">Andromeda::ResourceManager</text>
</a>
</g>
</g>
<!-- Node0&#45;&gt;Node1 -->
<g id="edge21_Node000000_Node000001" class="edge">
<title>Node0&#45;&gt;Node1</title>
<g id="a_edge21_Node000000_Node000001"><a xlink:title=" ">
<path fill="none" stroke="#63b8ff" d="M148.57,-262C156.45,-262 164.43,-262 172.26,-262"/>
<polygon fill="#63b8ff" stroke="#63b8ff" points="148.64,-258.5 138.64,-262 148.64,-265.5 148.64,-258.5"/>
</a>
</g>
</g>
<!-- Node2 -->
<g id="Node000002" class="node">
<title>Node2</title>
<g id="a_Node000002"><a xlink:href="class_andromeda_1_1_i_subsystem.html" target="_top" xlink:title="Interface declaring essential lifecycle functions for all engine subsystems.">
<polygon fill="white" stroke="#666666" points="130.38,-146 6.38,-146 6.38,-126 130.38,-126 130.38,-146"/>
<text xml:space="preserve" text-anchor="middle" x="68.38" y="-132.5" font-family="Helvetica,sans-Serif" font-size="10.00">Andromeda::ISubsystem</text>
</a>
</g>
</g>
<!-- Node2&#45;&gt;Node1 -->
<g id="edge26_Node000002_Node000001" class="edge">
<title>Node2&#45;&gt;Node1</title>
<g id="a_edge26_Node000002_Node000001"><a xlink:title=" ">
<path fill="none" stroke="#63b8ff" d="M82.94,-155.64C100.73,-179.88 134.25,-220.64 172.75,-243 178.64,-246.42 185.13,-249.23 191.77,-251.54"/>
<polygon fill="#63b8ff" stroke="#63b8ff" points="85.85,-153.69 77.19,-147.59 80.15,-157.76 85.85,-153.69"/>
</a>
</g>
</g>
<!-- Node3 -->
<g id="Node000003" class="node">
<title>Node3</title>
<g id="a_Node000003"><a xlink:href="class_andromeda_1_1_editor_1_1_editor.html" target="_top" xlink:title="The core subsystem managing the editor state, viewport camera, and scene interaction.">
<polygon fill="white" stroke="#666666" points="299.75,-234 196.75,-234 196.75,-202 299.75,-202 299.75,-234"/>
<text xml:space="preserve" text-anchor="start" x="204.75" y="-220.5" font-family="Helvetica,sans-Serif" font-size="10.00">Andromeda::Editor::</text>
<text xml:space="preserve" text-anchor="middle" x="248.25" y="-208.5" font-family="Helvetica,sans-Serif" font-size="10.00">Editor</text>
</a>
</g>
</g>
<!-- Node2&#45;&gt;Node3 -->
<g id="edge22_Node000002_Node000003" class="edge">
<title>Node2&#45;&gt;Node3</title>
<g id="a_edge22_Node000002_Node000003"><a xlink:title=" ">
<path fill="none" stroke="#63b8ff" d="M95.94,-152.39C116.43,-164.6 145.75,-181.14 172.75,-193 180.24,-196.29 188.32,-199.41 196.29,-202.26"/>
<polygon fill="#63b8ff" stroke="#63b8ff" points="97.76,-149.4 87.39,-147.23 94.14,-155.39 97.76,-149.4"/>
</a>
</g>
</g>
<!-- Node4 -->
<g id="Node000004" class="node">
<title>Node4</title>
<g id="a_Node000004"><a xlink:href="class_andromeda_1_1_input_system.html" target="_top" xlink:title="Maintains the current keyboard state and dispatches input events from raw SDL events.">
<polygon fill="white" stroke="#666666" points="311.75,-184 184.75,-184 184.75,-164 311.75,-164 311.75,-184"/>
<text xml:space="preserve" text-anchor="middle" x="248.25" y="-170.5" font-family="Helvetica,sans-Serif" font-size="10.00">Andromeda::InputSystem</text>
</a>
</g>
</g>
<!-- Node2&#45;&gt;Node4 -->
<g id="edge23_Node000002_Node000004" class="edge">
<title>Node2&#45;&gt;Node4</title>
<g id="a_edge23_Node000002_Node000004"><a xlink:title=" ">
<path fill="none" stroke="#63b8ff" d="M129.54,-148.85C151.94,-153.64 177.06,-159.01 198.33,-163.55"/>
<polygon fill="#63b8ff" stroke="#63b8ff" points="130.44,-145.47 119.93,-146.8 128.98,-152.31 130.44,-145.47"/>
</a>
</g>
</g>
<!-- Node5 -->
<g id="Node000005" class="node">
<title>Node5</title>
<g id="a_Node000005"><a xlink:href="class_andromeda_1_1_network_manager.html" target="_top" xlink:title=" ">
<polygon fill="white" stroke="#666666" points="321.12,-146 175.38,-146 175.38,-126 321.12,-126 321.12,-146"/>
<text xml:space="preserve" text-anchor="middle" x="248.25" y="-132.5" font-family="Helvetica,sans-Serif" font-size="10.00">Andromeda::NetworkManager</text>
</a>
</g>
</g>
<!-- Node2&#45;&gt;Node5 -->
<g id="edge24_Node000002_Node000005" class="edge">
<title>Node2&#45;&gt;Node5</title>
<g id="a_edge24_Node000002_Node000005"><a xlink:title=" ">
<path fill="none" stroke="#63b8ff" d="M141.81,-136C152.72,-136 163.98,-136 174.89,-136"/>
<polygon fill="#63b8ff" stroke="#63b8ff" points="142.1,-132.5 132.1,-136 142.1,-139.5 142.1,-132.5"/>
</a>
</g>
</g>
<!-- Node6 -->
<g id="Node000006" class="node">
<title>Node6</title>
<g id="a_Node000006"><a xlink:href="class_andromeda_1_1_renderer.html" target="_top" xlink:title="Drives all frame rendering: PBR scene pass, selection/outline, post&#45;processing and IBL baking.">
<polygon fill="white" stroke="#666666" points="303.88,-108 192.62,-108 192.62,-88 303.88,-88 303.88,-108"/>
<text xml:space="preserve" text-anchor="middle" x="248.25" y="-94.5" font-family="Helvetica,sans-Serif" font-size="10.00">Andromeda::Renderer</text>
</a>
</g>
</g>
<!-- Node2&#45;&gt;Node6 -->
<g id="edge25_Node000002_Node000006" class="edge">
<title>Node2&#45;&gt;Node6</title>
<g id="a_edge25_Node000002_Node000006"><a xlink:title=" ">
<path fill="none" stroke="#63b8ff" d="M129.54,-123.15C151.94,-118.36 177.06,-112.99 198.33,-108.45"/>
<polygon fill="#63b8ff" stroke="#63b8ff" points="128.98,-119.69 119.93,-125.2 130.44,-126.53 128.98,-119.69"/>
</a>
</g>
</g>
<!-- Node7 -->
<g id="Node000007" class="node">
<title>Node7</title>
<g id="a_Node000007"><a xlink:href="class_andromeda_1_1_scene_manager.html" target="_top" xlink:title="Holds the scene&#39;s ECS registry and editor camera, and provides entity creation/removal.">
<polygon fill="white" stroke="#666666" points="316.62,-70 179.88,-70 179.88,-50 316.62,-50 316.62,-70"/>
<text xml:space="preserve" text-anchor="middle" x="248.25" y="-56.5" font-family="Helvetica,sans-Serif" font-size="10.00">Andromeda::SceneManager</text>
</a>
</g>
</g>
<!-- Node2&#45;&gt;Node7 -->
<g id="edge27_Node000002_Node000007" class="edge">
<title>Node2&#45;&gt;Node7</title>
<g id="a_edge27_Node000002_Node000007"><a xlink:title=" ">
<path fill="none" stroke="#63b8ff" d="M94.7,-119.64C115.1,-107.07 144.87,-90.03 172.75,-79 181.07,-75.71 190.13,-72.84 198.99,-70.4"/>
<polygon fill="#63b8ff" stroke="#63b8ff" points="93.12,-116.51 86.5,-124.78 96.83,-122.44 93.12,-116.51"/>
</a>
</g>
</g>
<!-- Node8 -->
<g id="Node000008" class="node">
<title>Node8</title>
<g id="a_Node000008"><a xlink:href="class_andromeda_1_1_window_1_1_window_manager.html" target="_top" xlink:title="Creates and tears down the SDL window and OpenGL context as an engine subsystem.">
<polygon fill="white" stroke="#666666" points="304.62,-32 191.88,-32 191.88,0 304.62,0 304.62,-32"/>
<text xml:space="preserve" text-anchor="start" x="199.88" y="-18.5" font-family="Helvetica,sans-Serif" font-size="10.00">Andromeda::Window::</text>
<text xml:space="preserve" text-anchor="middle" x="248.25" y="-6.5" font-family="Helvetica,sans-Serif" font-size="10.00">WindowManager</text>
</a>
</g>
</g>
<!-- Node2&#45;&gt;Node8 -->
<g id="edge28_Node000002_Node000008" class="edge">
<title>Node2&#45;&gt;Node8</title>
<g id="a_edge28_Node000002_Node000008"><a xlink:title=" ">
<path fill="none" stroke="#63b8ff" d="M85.38,-117.14C104.29,-95.92 137.65,-61.73 172.75,-41 178.62,-37.53 185.04,-34.46 191.58,-31.77"/>
<polygon fill="#63b8ff" stroke="#63b8ff" points="82.91,-114.64 78.97,-124.48 88.18,-119.25 82.91,-114.64"/>
</a>
</g>
</g>
</g>
</svg>
