<?xml version="1.0" encoding="UTF-8" standalone="no"?>
<!DOCTYPE svg PUBLIC "-//W3C//DTD SVG 1.1//EN"
 "http://www.w3.org/Graphics/SVG/1.1/DTD/svg11.dtd">
<!-- Generated by graphviz version 15.0.0 (20260523.1842)
 -->
<!-- Title: Andromeda::Gui::Console::CommandProfile Pages: 1 -->
<svg width="238pt" height="286pt"
 viewBox="0.00 0.00 238.00 286.00" xmlns="http://www.w3.org/2000/svg" xmlns:xlink="http://www.w3.org/1999/xlink">
<g id="graph0" class="graph" transform="scale(1 1) rotate(0) translate(4 282)">
<title>Andromeda::Gui::Console::CommandProfile</title>
<!-- Node1 -->
<g id="Node000001" class="node">
<title>Node1</title>
<g id="a_Node000001"><a xlink:title="Describes a registered command: which flags it accepts and what it does.">
<polygon fill="#999999" stroke="#666666" points="169,-32 40.5,-32 40.5,0 169,0 169,-32"/>
<text xml:space="preserve" text-anchor="start" x="48.5" y="-18.5" font-family="Helvetica,sans-Serif" font-size="10.00">Andromeda::Gui::Console</text>
<text xml:space="preserve" text-anchor="middle" x="104.75" y="-6.5" font-family="Helvetica,sans-Serif" font-size="10.00">::CommandProfile</text>
</a>
</g>
</g>
<!-- Node2 -->
<g id="Node000002" class="node">
<title>Node2</title>
<g id="a_Node000002"><a xlink:title=" ">
<polygon fill="white" stroke="#666666" points="155.5,-118 54,-118 54,-86 155.5,-86 155.5,-118"/>
<text xml:space="preserve" text-anchor="start" x="62" y="-104.5" font-family="Helvetica,sans-Serif" font-size="10.00">std::set&lt; std::string</text>
<text xml:space="preserve" text-anchor="middle" x="104.75" y="-92.5" font-family="Helvetica,sans-Serif" font-size="10.00">_view &gt;</text>
</a>
</g>
</g>
<!-- Node2&#45;&gt;Node1 -->
<g id="edge1_Node000001_Node000002" class="edge">
<title>Node2&#45;&gt;Node1</title>
<g id="a_edge1_Node000001_Node000002"><a xlink:title=" ">
<path fill="none" stroke="#9a32cd" stroke-dasharray="5,2" d="M104.75,-74.27C104.75,-60.42 104.75,-44.01 104.75,-32.31"/>
<polygon fill="#9a32cd" stroke="#9a32cd" points="101.25,-74.08 104.75,-84.08 108.25,-74.08 101.25,-74.08"/>
</a>
</g>
<text xml:space="preserve" text-anchor="start" x="107.75" y="-55.25" font-family="Helvetica,sans-Serif" font-size="10.00" fill="grey">allowedFlags</text>
</g>
<!-- Node3 -->
<g id="Node000003" class="node">
<title>Node3</title>
<g id="a_Node000003"><a xlink:title=" ">
<polygon fill="white" stroke="#666666" points="99.25,-192 14.25,-192 14.25,-172 99.25,-172 99.25,-192"/>
<text xml:space="preserve" text-anchor="middle" x="56.75" y="-178.5" font-family="Helvetica,sans-Serif" font-size="10.00">std::string_view</text>
</a>
</g>
</g>
<!-- Node3&#45;&gt;Node2 -->
<g id="edge2_Node000002_Node000003" class="edge">
<title>Node3&#45;&gt;Node2</title>
<g id="a_edge2_Node000002_Node000003"><a xlink:title=" ">
<path fill="none" stroke="#9a32cd" stroke-dasharray="5,2" d="M68.37,-162.12C76.61,-148.72 87.54,-130.96 95.26,-118.42"/>
<polygon fill="#9a32cd" stroke="#9a32cd" points="65.5,-160.11 63.24,-170.46 71.46,-163.77 65.5,-160.11"/>
</a>
</g>
<text xml:space="preserve" text-anchor="start" x="86.62" y="-141.25" font-family="Helvetica,sans-Serif" font-size="10.00" fill="grey">keys</text>
</g>
<!-- Node4 -->
<g id="Node000004" class="node">
<title>Node4</title>
<g id="a_Node000004"><a xlink:title=" ">
<polygon fill="white" stroke="#666666" points="113.5,-278 0,-278 0,-246 113.5,-246 113.5,-278"/>
<text xml:space="preserve" text-anchor="start" x="8" y="-264.5" font-family="Helvetica,sans-Serif" font-size="10.00">std::basic_string_view</text>
<text xml:space="preserve" text-anchor="middle" x="56.75" y="-252.5" font-family="Helvetica,sans-Serif" font-size="10.00">&lt; Char &gt;</text>
</a>
</g>
</g>
<!-- Node4&#45;&gt;Node3 -->
<g id="edge3_Node000003_Node000004" class="edge">
<title>Node4&#45;&gt;Node3</title>
<g id="a_edge3_Node000003_Node000004"><a xlink:title=" ">
<path fill="none" stroke="#63b8ff" d="M56.75,-234.23C56.75,-219.77 56.75,-202.81 56.75,-192.49"/>
<polygon fill="#63b8ff" stroke="#63b8ff" points="53.25,-234.08 56.75,-244.08 60.25,-234.08 53.25,-234.08"/>
</a>
</g>
</g>
<!-- Node5 -->
<g id="Node000005" class="node">
<title>Node5</title>
<g id="a_Node000005"><a xlink:title=" ">
<polygon fill="white" stroke="#666666" points="190.62,-192 116.88,-192 116.88,-172 190.62,-172 190.62,-192"/>
<text xml:space="preserve" text-anchor="middle" x="153.75" y="-178.5" font-family="Helvetica,sans-Serif" font-size="10.00">std::set&lt; K &gt;</text>
</a>
</g>
</g>
<!-- Node5&#45;&gt;Node2 -->
<g id="edge4_Node000002_Node000005" class="edge">
<title>Node5&#45;&gt;Node2</title>
<g id="a_edge4_Node000002_Node000005"><a xlink:title=" ">
<path fill="none" stroke="orange" stroke-dasharray="5,2" d="M141.89,-162.12C133.47,-148.72 122.32,-130.96 114.44,-118.42"/>
<polygon fill="orange" stroke="orange" points="138.85,-163.86 147.13,-170.46 144.78,-160.13 138.85,-163.86"/>
</a>
</g>
<text xml:space="preserve" text-anchor="start" x="139.5" y="-141.25" font-family="Helvetica,sans-Serif" font-size="10.00" fill="grey">&lt; std::string_view &gt;</text>
</g>
<!-- Node6 -->
<g id="Node000006" class="node">
<title>Node6</title>
<g id="a_Node000006"><a xlink:title=" ">
<polygon fill="white" stroke="#666666" points="168.15,-272 139.35,-272 139.35,-252 168.15,-252 168.15,-272"/>
<text xml:space="preserve" text-anchor="middle" x="153.75" y="-258.5" font-family="Helvetica,sans-Serif" font-size="10.00">K</text>
</a>
</g>
</g>
<!-- Node6&#45;&gt;Node5 -->
<g id="edge5_Node000005_Node000006" class="edge">
<title>Node6&#45;&gt;Node5</title>
<g id="a_edge5_Node000005_Node000006"><a xlink:title=" ">
<path fill="none" stroke="#9a32cd" stroke-dasharray="5,2" d="M153.75,-240.59C153.75,-224.94 153.75,-204.08 153.75,-192.24"/>
<polygon fill="#9a32cd" stroke="#9a32cd" points="150.25,-240.23 153.75,-250.23 157.25,-240.23 150.25,-240.23"/>
</a>
</g>
<text xml:space="preserve" text-anchor="start" x="156.75" y="-215.25" font-family="Helvetica,sans-Serif" font-size="10.00" fill="grey">keys</text>
</g>
</g>
</svg>
